<?xml version="1.0" encoding="UTF-8" standalone="no"?>
<svg
   version="1.2"
   width="245.8mm"
   height="147.37mm"
   viewBox="0 0 24580 14737"
   preserveAspectRatio="xMidYMid"
   fill-rule="evenodd"
   stroke-width="28.222"
   stroke-linejoin="round"
   xml:space="preserve"
   id="svg1221"
   sodipodi:docname="2.svg"
   inkscape:version="1.2.2 (732a01da63, 2022-12-09, custom)"
   xmlns:inkscape="http://www.inkscape.org/namespaces/inkscape"
   xmlns:sodipodi="http://sodipodi.sourceforge.net/DTD/sodipodi-0.dtd"
   xmlns="http://www.w3.org/2000/svg"
   xmlns:svg="http://www.w3.org/2000/svg"
   xmlns:ooo="http://xml.openoffice.org/svg/export"><sodipodi:namedview
   id="namedview1223"
   pagecolor="#ffffff"
   bordercolor="#000000"
   borderopacity="0.25"
   inkscape:showpageshadow="2"
   inkscape:pageopacity="0.0"
   inkscape:pagecheckerboard="0"
   inkscape:deskcolor="#d1d1d1"
   inkscape:document-units="mm"
   showgrid="false"
   inkscape:zoom="1.3595148"
   inkscape:cx="461.19394"
   inkscape:cy="278.77592"
   inkscape:window-width="1920"
   inkscape:window-height="1031"
   inkscape:window-x="0"
   inkscape:window-y="25"
   inkscape:window-maximized="1"
   inkscape:current-layer="svg1221" />
 <defs
   class="ClipPathGroup"
   id="defs1121">
  <clipPath
   id="presentation_clip_path"
   clipPathUnits="userSpaceOnUse">
   <rect
   x="0"
   y="0"
   width="24580"
   height="14737"
   id="rect1115" />
  </clipPath>
  <clipPath
   id="presentation_clip_path_shrink"
   clipPathUnits="userSpaceOnUse">
   <rect
   x="24"
   y="14"
   width="24531"
   height="14708"
   id="rect1118" />
  </clipPath>
 </defs>
 <defs
   class="TextShapeIndex"
   id="defs1125">
  <g
   ooo:slide="id1"
   ooo:id-list="id3 id4 id5 id6 id7 id8 id9"
   id="g1123" />
 </defs>
 <defs
   class="EmbeddedBulletChars"
   id="defs1157">
  <g
   id="bullet-char-template-57356"
   transform="scale(0.00048828125,-0.00048828125)">
   <path
   d="M 580,1141 L 1163,571 580,0 -4,571 580,1141 Z"
   id="path1127" />
  </g>
  <g
   id="bullet-char-template-57354"
   transform="scale(0.00048828125,-0.00048828125)">
   <path
   d="M 8,1128 L 1137,1128 1137,0 8,0 8,1128 Z"
   id="path1130" />
  </g>
  <g
   id="bullet-char-template-10146"
   transform="scale(0.00048828125,-0.00048828125)">
   <path
   d="M 174,0 L 602,739 174,1481 1456,739 174,0 Z M 1358,739 L 309,1346 659,739 1358,739 Z"
   id="path1133" />
  </g>
  <g
   id="bullet-char-template-10132"
   transform="scale(0.00048828125,-0.00048828125)">
   <path
   d="M 2015,739 L 1276,0 717,0 1260,543 174,543 174,936 1260,936 717,1481 1274,1481 2015,739 Z"
   id="path1136" />
  </g>
  <g
   id="bullet-char-template-10007"
   transform="scale(0.00048828125,-0.00048828125)">
   <path
   d="M 0,-2 C -7,14 -16,27 -25,37 L 356,567 C 262,823 215,952 215,954 215,979 228,992 255,992 264,992 276,990 289,987 310,991 331,999 354,1012 L 381,999 492,748 772,1049 836,1024 860,1049 C 881,1039 901,1025 922,1006 886,937 835,863 770,784 769,783 710,716 594,584 L 774,223 C 774,196 753,168 711,139 L 727,119 C 717,90 699,76 672,76 641,76 570,178 457,381 L 164,-76 C 142,-110 111,-127 72,-127 30,-127 9,-110 8,-76 1,-67 -2,-52 -2,-32 -2,-23 -1,-13 0,-2 Z"
   id="path1139" />
  </g>
  <g
   id="bullet-char-template-10004"
   transform="scale(0.00048828125,-0.00048828125)">
   <path
   d="M 285,-33 C 182,-33 111,30 74,156 52,228 41,333 41,471 41,549 55,616 82,672 116,743 169,778 240,778 293,778 328,747 346,684 L 369,508 C 377,444 397,411 428,410 L 1163,1116 C 1174,1127 1196,1133 1229,1133 1271,1133 1292,1118 1292,1087 L 1292,965 C 1292,929 1282,901 1262,881 L 442,47 C 390,-6 338,-33 285,-33 Z"
   id="path1142" />
  </g>
  <g
   id="bullet-char-template-9679"
   transform="scale(0.00048828125,-0.00048828125)">
   <path
   d="M 813,0 C 632,0 489,54 383,161 276,268 223,411 223,592 223,773 276,916 383,1023 489,1130 632,1184 813,1184 992,1184 1136,1130 1245,1023 1353,916 1407,772 1407,592 1407,412 1353,268 1245,161 1136,54 992,0 813,0 Z"
   id="path1145" />
  </g>
  <g
   id="bullet-char-template-8226"
   transform="scale(0.00048828125,-0.00048828125)">
   <path
   d="M 346,457 C 273,457 209,483 155,535 101,586 74,649 74,723 74,796 101,859 155,911 209,963 273,989 346,989 419,989 480,963 531,910 582,859 608,796 608,723 608,648 583,586 532,535 482,483 420,457 346,457 Z"
   id="path1148" />
  </g>
  <g
   id="bullet-char-template-8211"
   transform="scale(0.00048828125,-0.00048828125)">
   <path
   d="M -4,459 L 1135,459 1135,606 -4,606 -4,459 Z"
   id="path1151" />
  </g>
  <g
   id="bullet-char-template-61548"
   transform="scale(0.00048828125,-0.00048828125)">
   <path
   d="M 173,740 C 173,903 231,1043 346,1159 462,1274 601,1332 765,1332 928,1332 1067,1274 1183,1159 1299,1043 1357,903 1357,740 1357,577 1299,437 1183,322 1067,206 928,148 765,148 601,148 462,206 346,322 231,437 173,577 173,740 Z"
   id="path1154" />
  </g>
 </defs>
 
 
<g
   inkscape:groupmode="layer"
   id="layer2"
   inkscape:label="Layer 2"><path
     fill="rgb(42,96,153)"
     stroke="none"
     d="M 20447,9147 C 20479,8671 20508,8703 19681,8277 19284,8073 18707,7775 18399,7617 17770,7292 16686,6847 15766,6537 15172,6337 14739,6235 14116,6148 13703,6091 13380,5999 12791,5772 12242,5560 12225,5559 12075,5725 11911,5906 11672,6515 11626,6872 11616,6946 11625,7054 11645,7112 11686,7232 11778,7267 12389,7400 12886,7507 13153,7585 13533,7735 13712,7805 14085,7920 14362,7991 14639,8063 14985,8174 15131,8238 15471,8390 15671,8454 15884,8485 16096,8515 16294,8599 16584,8785 16906,8991 17145,9094 17540,9197 17730,9247 17960,9326 18051,9373 18143,9420 18397,9549 18617,9662 19057,9885 19303,10102 19558,10489 19717,10728 19777,10789 19835,10767 19857,10758 19951,10586 20042,10385 20312,9793 20427,9443 20447,9147 Z"
     id="path1166" /><path
     fill="rgb(255,0,0)"
     stroke="none"
     d="M 11825,5951 C 11882,5833 11970,5693 12020,5639 12086,5568 12096,5541 12058,5541 12028,5541 11967,5580 11921,5630 11876,5679 11803,5719 11759,5719 11715,5719 11669,5734 11657,5754 11645,5774 11607,5791 11573,5791 11499,5791 11382,6030 11305,6338 11250,6561 11276,6677 11408,6788 11438,6814 11463,6872 11463,6916 11463,6962 11474,7028 11489,7064 11507,7112 11520,7086 11537,6969 11550,6880 11553,6796 11545,6782 11522,6742 11707,6194 11825,5951 Z"
     id="path1201" /><path
     fill="rgb(255,191,0)"
     stroke="none"
     d="M 4805,4618 L 4798,4641 C 4964,4687 5308,4797 6048,5033 6669,5231 7312,5426 7477,5467 7642,5508 8538,5780 9470,6070 10401,6361 11165,6589 11168,6578 11171,6567 11201,6438 11234,6291 11268,6143 11325,5962 11362,5889 11399,5815 11422,5754 11415,5754 11400,5754 10357,5444 9064,5054 8705,4947 8054,4739 7618,4594 7181,4448 6292,4167 5642,3968 5046,3785 4543,3627 4456,3595 L 4454,3601 3324,3273 3333,3242 3329,3243 C 3318,3216 3306,3190 3292,3167 3279,3144 3264,3124 3247,3107 3227,3085 3204,3068 3180,3057 3157,3046 3133,3039 3108,3038 3105,3038 3103,3038 3100,3038 3075,3038 3051,3043 3027,3052 3001,3062 2976,3076 2951,3095 2924,3117 2898,3143 2875,3173 2850,3205 2828,3241 2809,3280 2770,3360 2744,3452 2734,3546 2731,3576 2729,3606 2729,3636 2729,3699 2737,3759 2751,3816 2761,3856 2775,3893 2792,3925 2809,3957 2828,3985 2850,4008 2859,4017 2869,4026 2880,4034 L 4805,4618 Z"
     id="path1180" /><path
     fill="rgb(255,191,0)"
     stroke="none"
     d="M 1837,7075 C 1590,6254 1520,5933 1492,5491 1473,5189 1478,5157 1557,5041 1625,4940 1664,4916 1761,4916 L 1880,4916 2006,5362 C 2090,5657 2227,6007 2412,6397 2693,6988 2820,7228 2820,7169 2820,7152 2741,6879 2645,6562 2368,5650 2319,5405 2314,4892 2309,4460 2312,4437 2394,4348 2501,4232 2633,4226 2678,4336 2697,4380 2762,4593 2824,4809 2901,5078 3040,5413 3268,5875 3451,6245 3607,6542 3614,6534 3622,6526 3527,6207 3403,5824 3193,5175 3067,4588 3067,4260 3067,4236 3068,4218 3070,4203 L 2887,4147 2882,4158 C 2865,4151 2848,4142 2832,4131 L 2831,4130 C 2811,4116 2791,4100 2773,4081 2745,4051 2719,4015 2698,3974 2678,3935 2661,3890 2648,3842 2632,3778 2623,3708 2623,3636 2623,3603 2625,3569 2629,3535 2640,3428 2670,3324 2714,3234 2736,3188 2762,3146 2791,3109 2820,3071 2852,3038 2886,3012 2919,2986 2954,2966 2989,2953 3026,2939 3063,2932 3100,2932 3104,2932 3108,2932 3113,2932 3152,2934 3190,2944 3226,2961 3261,2978 3294,3002 3324,3034 3346,3056 3365,3083 3383,3112 3398,3136 3411,3163 3422,3191 L 3811,3304 C 3815,3267 3837,3226 3878,3185 4008,3053 4116,3115 4133,3330 4135,3358 4136,3381 4135,3398 L 4430,3484 C 4421,3373 4412,3185 4405,2977 4394,2650 4372,2349 4356,2310 4302,2180 4185,2078 4089,2078 4006,2078 3497,2415 2748,2965 1253,4065 1225,4088 1109,4271 987,4464 880,4774 880,4935 880,5042 1153,6003 1260,6273 1403,6631 2009,7861 2042,7861 2061,7861 2070,7841 2062,7817 2054,7792 1952,7459 1837,7075 Z"
     id="path1173" /><path
     fill="rgb(255,191,0)"
     stroke="none"
     d="M 3572,4498 C 3603,4635 3710,4930 3810,5153 3911,5376 4024,5628 4062,5713 4181,5978 4172,5850 4042,5428 3865,4846 3793,4547 3810,4427 L 3533,4343 C 3545,4381 3557,4430 3572,4498 Z"
     id="path1187" /><path
     fill="rgb(255,191,0)"
     stroke="none"
     d="M 4607,4911 C 4712,5130 4788,5277 4777,5237 4677,4897 4634,4743 4626,4674 L 4470,4627 4607,4911 Z"
     id="path1194" /></g><g
   inkscape:groupmode="layer"
   id="layer1"
   inkscape:label="Layer 1"><path
     fill="#000000"
     stroke="none"
     d="m 19489,10560 c -255,-386 -502,-603 -941,-826 -220,-113 -475,-242 -566,-289 -91,-46 -321,-125 -512,-175 -395,-104 -634,-207 -955,-413 -291,-185 -488,-270 -701,-299 -212,-31 -412,-96 -753,-247 -145,-65 -491,-176 -768,-247 -277,-72 -650,-187 -829,-257 -364,-143 -624,-218 -1242,-358 -516,-118 -793,-208 -833,-271 -16,-26 -30,-86 -30,-132 -1,-46 -39,-130 -86,-185 -46,-57 -90,-118 -97,-136 -13,-36 -3278,-1063 -3769,-1185 -165,-41 -808,-236 -1429,-433 -1357,-432 -1252,-402 -1252,-361 0,20 32,128 71,242 94,277 93,411 -2,411 -57,0 -111,-84 -260,-407 l -187,-401 -348,-106 c -65,-14 -110,-19 -114,-11 -14,35 79,398 225,874 140,458 155,622 55,622 -36,0 -81,-20 -100,-45 -93,-125 -494,-1080 -557,-1328 -51,-200 -68,-261 -124,-298 l -231,-70 c -1,0 -1,1 -2,1 -11,11 6,202 38,422 40,275 131,626 286,1105 125,386 227,737 227,779 0,57 -22,77 -88,77 -79,0 -122,-69 -419,-669 -240,-486 -366,-792 -459,-1115 -70,-244 -142,-458 -157,-473 -16,-16 -67,13 -114,64 -81,88 -86,115 -80,475 7,437 68,734 331,1597 202,665 214,763 90,763 -73,0 -118,-71 -357,-562 -369,-760 -365,-751 -511,-1258 -85,-296 -145,-447 -177,-447 -27,0 -87,57 -133,125 -77,114 -83,149 -62,392 35,407 109,726 358,1551 126,414 224,784 218,824 -7,49 -37,72 -98,72 -79,0 -120,-65 -395,-625 -169,-344 -358,-746 -420,-892 -163,-388 -420,-1306 -420,-1499 0,-227 90,-514 230,-735 115,-183 143,-205 1639,-1306 86,-64 402,-290 702,-501 504,-358 557,-386 709,-386 127,0 182,18 237,80 117,132 129,197 150,818 11,328 28,603 37,613 10,10 550,180 1200,378 650,199 1539,480 1975,626 707,236 1766,563 3310,1020 373,110 516,140 545,110 22,-22 73,-40 114,-40 41,0 121,-48 176,-108 56,-58 136,-106 178,-106 41,0 363,112 714,249 707,275 1027,370 1461,430 623,86 1056,189 1650,389 920,310 2005,755 2634,1080 307,159 884,456 1282,661 836,430 795,380 766,940 -14,271 -42,406 -142,677 -150,408 -408,971 -462,1008 -60,40 -178,31 -236,-18 -28,-25 -114,-139 -190,-255 z m 959,-1412 c 32,-476 61,-444 -766,-870 -397,-204 -974,-502 -1282,-660 -629,-325 -1713,-770 -2633,-1080 -594,-200 -1027,-302 -1650,-389 -413,-57 -736,-149 -1325,-376 -549,-212 -566,-213 -716,-47 -164,181 -403,790 -449,1147 -10,74 -1,182 19,240 41,120 133,155 744,288 497,107 764,185 1144,335 179,70 552,185 829,256 277,72 623,183 769,247 340,152 540,216 753,247 212,30 410,114 700,300 322,206 561,309 956,412 190,50 420,129 511,176 92,47 346,176 566,289 440,223 686,440 941,827 159,239 219,300 277,278 22,-9 116,-181 207,-382 270,-592 385,-942 405,-1238 z M 1838,7076 c -247,-821 -317,-1142 -345,-1584 -19,-302 -14,-334 65,-450 68,-101 107,-125 204,-125 h 119 l 126,446 c 84,295 221,645 406,1035 281,591 408,831 408,772 0,-17 -79,-290 -175,-607 -277,-912 -326,-1157 -331,-1670 -5,-432 -2,-455 80,-544 107,-116 239,-122 284,-12 19,44 84,257 146,473 77,269 216,604 444,1066 183,370 339,667 346,659 8,-8 -87,-327 -211,-710 -210,-649 -336,-1236 -336,-1564 0,-24 1,-42 3,-57 l -183,-56 -5,11 c -17,-7 -34,-16 -50,-27 l -1,-1 c -20,-14 -40,-30 -58,-49 -28,-30 -54,-66 -75,-107 -20,-39 -37,-84 -50,-132 -16,-64 -25,-134 -25,-206 0,-33 2,-67 6,-101 11,-107 41,-211 85,-301 22,-46 48,-88 77,-125 29,-38 61,-71 95,-97 33,-26 68,-46 103,-59 37,-14 74,-21 111,-21 4,0 8,0 13,0 39,2 77,12 113,29 35,17 68,41 98,73 22,22 41,49 59,78 15,24 28,51 39,79 l 389,113 c 4,-37 26,-78 67,-119 130,-132 238,-70 255,145 2,28 3,51 2,68 l 295,86 c -9,-111 -18,-299 -25,-507 -11,-327 -33,-628 -49,-667 -54,-130 -171,-232 -267,-232 -83,0 -592,337 -1341,887 -1495,1100 -1523,1123 -1639,1306 -122,193 -229,503 -229,664 0,107 273,1068 380,1338 143,358 749,1588 782,1588 19,0 28,-20 20,-44 -8,-25 -110,-358 -225,-742 z m 2968,-2457 -7,23 c 166,46 510,156 1250,392 621,198 1264,393 1429,434 165,41 1061,313 1993,603 931,291 1695,519 1698,508 3,-11 33,-140 66,-287 34,-148 91,-329 128,-402 37,-74 60,-135 53,-135 -15,0 -1058,-310 -2351,-700 C 8706,4948 8055,4740 7619,4595 7182,4449 6293,4168 5643,3969 5047,3786 4544,3628 4457,3596 l -2,6 -1130,-328 9,-31 -4,1 c -11,-27 -23,-53 -37,-76 -13,-23 -28,-43 -45,-60 -20,-22 -43,-39 -67,-50 -23,-11 -47,-18 -72,-19 -3,0 -5,0 -8,0 -25,0 -49,5 -73,14 -26,10 -51,24 -76,43 -27,22 -53,48 -76,78 -25,32 -47,68 -66,107 -39,80 -65,172 -75,266 -3,30 -5,60 -5,90 0,63 8,123 22,180 10,40 24,77 41,109 17,32 36,60 58,83 9,9 19,18 30,26 z M 3573,4499 c 31,137 138,432 238,655 101,223 214,475 252,560 119,265 110,137 -20,-285 -177,-582 -249,-881 -232,-1001 l -277,-84 c 12,38 24,87 39,155 z m 1035,413 c 105,219 181,366 170,326 -100,-340 -143,-494 -151,-563 l -156,-47 z M 4056,3312 c 0,-69 -69,-107 -113,-62 -20,20 -26,54 -13,76 4,7 10,13 16,18 l 64,19 c 25,-4 46,-22 46,-51 z m 7770,2640 c 57,-118 145,-258 195,-312 66,-71 76,-98 38,-98 -30,0 -91,39 -137,89 -45,49 -118,89 -162,89 -44,0 -90,15 -102,35 -12,20 -50,37 -84,37 -74,0 -191,239 -268,547 -55,223 -29,339 103,450 30,26 55,84 55,128 0,46 11,112 26,148 18,48 31,22 48,-95 13,-89 16,-173 8,-187 -23,-40 162,-588 280,-831 z"
     id="path1208"
     style="display:inline" /></g></svg>
